<svg width="93" height="26" viewBox="0 0 93 26" fill="none" xmlns="http://www.w3.org/2000/svg">
<rect width="93" height="26" fill="#1E1E1E"/>
<g id="Desktop - 1">
<rect width="1440" height="1024" transform="translate(-120 -23)" fill="white"/>
<g id="Frame 1">
<g id="Frame 2">
<g id="ResUp">
<path d="M15.6246 21.0128C11.8659 21.0128 9.5667 19.3228 8.72699 15.9429L7.97725 12.9417H6.56773V20.5466H0V0.5H9.08686C10.8063 0.5 12.3157 0.752525 13.6153 1.25757C14.9348 1.7432 15.9545 2.43279 16.6742 3.32634C17.394 4.21989 17.7539 5.24942 17.7539 6.41492C17.7539 7.71639 17.424 8.81391 16.7642 9.70746C16.1244 10.5816 15.1248 11.3003 13.7652 11.8636C13.9052 12.6018 14.0651 13.2719 14.2451 13.8741C14.485 14.6123 14.8149 15.127 15.2347 15.4184C15.6546 15.7098 16.2644 15.8555 17.0641 15.8555C17.344 15.8555 17.7839 15.8166 18.3837 15.7389V20.4883C17.444 20.838 16.5243 21.0128 15.6246 21.0128ZM7.70734 8.86247C9.18683 8.86247 10.2265 8.70707 10.8263 8.39627C11.446 8.06604 11.7559 7.51243 11.7559 6.73543C11.7559 6.07498 11.506 5.59907 11.0062 5.30769C10.5064 4.99689 9.71665 4.84149 8.63702 4.84149H6.56773V8.86247H7.70734Z" fill="url(#paint0_linear_1_4)"/>
<path d="M28.2575 20.7797C26.5981 20.7797 25.1186 20.4592 23.819 19.8182C22.5395 19.1577 21.5398 18.2642 20.8201 17.1375C20.1003 15.9915 19.7404 14.6997 19.7404 13.2622C19.7404 11.7859 20.1103 10.4747 20.8501 9.32867C21.5898 8.1826 22.5895 7.29876 23.849 6.67716C25.1086 6.05556 26.5081 5.74476 28.0476 5.74476C29.5271 5.74476 30.7866 6.06527 31.8263 6.70629C32.8859 7.32789 33.6756 8.18259 34.1955 9.2704C34.7153 10.3388 34.9752 11.5431 34.9752 12.8835C34.9752 13.2331 34.9552 13.4856 34.9152 13.641L25.9183 14.7774C26.1582 15.4573 26.5481 15.9526 27.0879 16.2634C27.6277 16.5548 28.3375 16.7005 29.2172 16.7005C30.5767 16.7005 32.0462 16.3605 33.6257 15.6807L34.3754 19.5851C32.516 20.3815 30.4767 20.7797 28.2575 20.7797ZM30.3268 11.1061C30.0069 9.88228 29.2472 9.2704 28.0476 9.2704C27.3278 9.2704 26.758 9.53263 26.3382 10.0571C25.9183 10.5816 25.6984 11.2615 25.6784 12.0967L30.3268 11.1061Z" fill="url(#paint1_linear_1_4)"/>
<path d="M42.3426 20.7797C40.2433 20.7797 38.4039 20.4786 36.8245 19.8765L37.5142 16.4091C38.9537 16.9141 40.3533 17.1667 41.7128 17.1667C42.7124 17.1667 43.2123 16.8947 43.2123 16.3508C43.2123 16.0789 43.0623 15.8555 42.7624 15.6807C42.4825 15.5058 41.9427 15.3504 41.143 15.2145C39.4836 14.9037 38.284 14.3792 37.5442 13.641C36.8245 12.9029 36.4646 11.8539 36.4646 10.4942C36.5446 8.9596 37.1744 7.78438 38.3539 6.96853C39.5335 6.15268 41.143 5.74476 43.1823 5.74476C44.2219 5.74476 45.1116 5.81274 45.8514 5.94872C46.6111 6.06527 47.3009 6.26923 47.9206 6.56061L47.2909 10.028C46.7111 9.8143 46.0713 9.64918 45.3715 9.53263C44.6918 9.41608 44.122 9.35781 43.6621 9.35781C42.9823 9.35781 42.5125 9.4258 42.2526 9.56177C41.9927 9.69775 41.8627 9.88228 41.8627 10.1154C41.8627 10.5427 42.3626 10.8438 43.3622 11.0186C45.1816 11.3294 46.5411 11.8733 47.4408 12.6503C48.3405 13.4274 48.7903 14.486 48.7903 15.8263C48.7903 17.3609 48.2305 18.575 47.1109 19.4685C46.0113 20.3427 44.4218 20.7797 42.3426 20.7797Z" fill="url(#paint2_linear_1_4)"/>
<path d="M61.2098 21.0128C59.2305 21.0128 57.4611 20.6437 55.9016 19.9056C54.3622 19.1674 53.1626 18.1379 52.3029 16.817C51.4432 15.4767 51.0133 13.9518 51.0133 12.2424V0.5H57.791V12.2424C57.791 13.4079 58.0809 14.2821 58.6607 14.8648C59.2405 15.4476 60.0902 15.7389 61.2098 15.7389C62.3294 15.7389 63.1791 15.4476 63.7589 14.8648C64.3387 14.2626 64.6286 13.3885 64.6286 12.2424V0.5H71.4063V12.2424C71.4063 13.9518 70.9764 15.4767 70.1167 16.817C69.257 18.1379 68.0474 19.1674 66.488 19.9056C64.9485 20.6437 63.1891 21.0128 61.2098 21.0128Z" fill="url(#paint3_linear_1_4)"/>
<path d="M74.4364 6.15268H80.7642V8.68765C81.7239 6.72572 83.3533 5.74476 85.6525 5.74476C86.9921 5.74476 88.2216 6.07498 89.3413 6.73543C90.4809 7.37646 91.3706 8.27001 92.0103 9.41608C92.6701 10.5622 93 11.8442 93 13.2622C93 14.6803 92.6601 15.9623 91.9804 17.1084C91.3206 18.2545 90.4209 19.1577 89.2813 19.8182C88.1617 20.4592 86.9621 20.7797 85.6825 20.7797C83.4033 20.7797 81.7639 19.7988 80.7642 17.8368V24.3345L74.4364 25.5V6.15268ZM83.7632 16.176C84.5829 16.176 85.2827 15.8846 85.8625 15.3019C86.4423 14.7191 86.7322 14.0392 86.7322 13.2622C86.7322 12.4464 86.4323 11.7568 85.8325 11.1935C85.2527 10.6301 84.5629 10.3485 83.7632 10.3485C82.9435 10.3485 82.2437 10.6301 81.6639 11.1935C81.0841 11.7374 80.7942 12.3881 80.7942 13.1457V13.2622C80.7942 14.0781 81.0841 14.7677 81.6639 15.331C82.2637 15.8943 82.9635 16.176 83.7632 16.176Z" fill="url(#paint4_linear_1_4)"/>
</g>
</g>
</g>
</g>
<defs>
<linearGradient id="paint0_linear_1_4" x1="0" y1="0.5" x2="21.1419" y2="76.7295" gradientUnits="userSpaceOnUse">
<stop stop-color="#BC0CD8"/>
<stop offset="1" stop-color="#0047FF"/>
</linearGradient>
<linearGradient id="paint1_linear_1_4" x1="0" y1="0.5" x2="21.1419" y2="76.7295" gradientUnits="userSpaceOnUse">
<stop stop-color="#BC0CD8"/>
<stop offset="1" stop-color="#0047FF"/>
</linearGradient>
<linearGradient id="paint2_linear_1_4" x1="0" y1="0.5" x2="21.1419" y2="76.7295" gradientUnits="userSpaceOnUse">
<stop stop-color="#BC0CD8"/>
<stop offset="1" stop-color="#0047FF"/>
</linearGradient>
<linearGradient id="paint3_linear_1_4" x1="0" y1="0.5" x2="21.1419" y2="76.7295" gradientUnits="userSpaceOnUse">
<stop stop-color="#BC0CD8"/>
<stop offset="1" stop-color="#0047FF"/>
</linearGradient>
<linearGradient id="paint4_linear_1_4" x1="0" y1="0.5" x2="21.1419" y2="76.7295" gradientUnits="userSpaceOnUse">
<stop stop-color="#BC0CD8"/>
<stop offset="1" stop-color="#0047FF"/>
</linearGradient>
</defs>
</svg>
